<svg xmlns="http://www.w3.org/2000/svg" style="display:none">
  <!-- shared symbol library; reference via <use href="../assets/artifacts.svg#name"/> -->

  <symbol id="art-detect" viewBox="0 0 400 400">
    <defs><linearGradient id="g1" x1="0" y1="0" x2="1" y2="1"><stop offset="0%" stop-color="#00b8a9"/><stop offset="100%" stop-color="#00d4c3"/></linearGradient></defs>
    <rect x="20" y="40" width="360" height="320" rx="14" fill="#0f172a"/>
    <rect x="20" y="40" width="360" height="28" rx="14" fill="#1e293b"/>
    <circle cx="38" cy="54" r="4" fill="#ff5f57"/><circle cx="52" cy="54" r="4" fill="#febc2e"/><circle cx="66" cy="54" r="4" fill="#28c840"/>
    <!-- mock video feed lines -->
    <g opacity=".4" stroke="#334155" stroke-width="1">
      <line x1="40" y1="100" x2="360" y2="100"/><line x1="40" y1="140" x2="360" y2="140"/><line x1="40" y1="180" x2="360" y2="180"/><line x1="40" y1="220" x2="360" y2="220"/><line x1="40" y1="260" x2="360" y2="260"/><line x1="40" y1="300" x2="360" y2="300"/><line x1="40" y1="340" x2="360" y2="340"/>
    </g>
    <!-- detection boxes -->
    <g fill="none" stroke="url(#g1)" stroke-width="2.4">
      <rect x="60" y="120" width="100" height="140" rx="3"/>
      <rect x="200" y="160" width="80" height="120" rx="3"/>
      <rect x="290" y="200" width="70" height="100" rx="3"/>
    </g>
    <g fill="#00b8a9" font-family="Inter,sans-serif" font-size="11" font-weight="600">
      <rect x="60" y="108" width="60" height="16" rx="3"/><text x="66" y="120" fill="#fff">person 0.98</text>
      <rect x="200" y="148" width="50" height="16" rx="3"/><text x="206" y="160" fill="#fff">helmet 0.94</text>
      <rect x="290" y="188" width="44" height="16" rx="3"/><text x="296" y="200" fill="#fff">vest 0.91</text>
    </g>
    <text x="40" y="92" fill="#94a3b8" font-family="Inter,sans-serif" font-size="11" font-weight="500">CAM_01 · LIVE · 1080p</text>
    <circle cx="350" cy="86" r="5" fill="#ef4444"><animate attributeName="opacity" values="1;0.3;1" dur="1.6s" repeatCount="indefinite"/></circle>
  </symbol>

  <symbol id="art-search" viewBox="0 0 400 400">
    <defs><linearGradient id="g2" x1="0" y1="0" x2="1" y2="1"><stop offset="0%" stop-color="#00b8a9"/><stop offset="100%" stop-color="#00d4c3"/></linearGradient></defs>
    <rect x="20" y="40" width="360" height="80" rx="14" fill="#fff" stroke="#e5e7eb"/>
    <circle cx="50" cy="80" r="14" fill="none" stroke="#00b8a9" stroke-width="2.5"/><path d="M60 90l10 10" stroke="#00b8a9" stroke-width="2.5" stroke-linecap="round"/>
    <text x="84" y="86" fill="#111" font-family="Inter,sans-serif" font-size="14" font-weight="500">red truck arriving after 6 PM</text>
    <rect x="84" y="98" width="180" height="2" rx="1" fill="#00b8a9"><animate attributeName="width" values="0;180" dur="1.4s" repeatCount="indefinite"/></rect>
    <!-- result thumbnails -->
    <g>
      <rect x="20" y="140" width="170" height="110" rx="10" fill="#0f172a"/>
      <rect x="40" y="170" width="60" height="60" rx="4" fill="url(#g2)" opacity=".55"/>
      <rect x="110" y="180" width="60" height="40" rx="4" fill="#475569"/>
      <text x="30" y="160" fill="#94a3b8" font-family="Inter,sans-serif" font-size="10">2024-09-12 · 18:42</text>
      <rect x="210" y="140" width="170" height="110" rx="10" fill="#0f172a"/>
      <rect x="230" y="170" width="60" height="60" rx="4" fill="url(#g2)" opacity=".4"/>
      <rect x="300" y="180" width="60" height="40" rx="4" fill="#475569"/>
      <text x="220" y="160" fill="#94a3b8" font-family="Inter,sans-serif" font-size="10">2024-09-12 · 19:15</text>
      <rect x="20" y="270" width="170" height="110" rx="10" fill="#0f172a"/>
      <rect x="40" y="300" width="60" height="60" rx="4" fill="url(#g2)" opacity=".7"/>
      <rect x="110" y="310" width="60" height="40" rx="4" fill="#475569"/>
      <text x="30" y="290" fill="#94a3b8" font-family="Inter,sans-serif" font-size="10">2024-09-13 · 06:08</text>
      <rect x="210" y="270" width="170" height="110" rx="10" fill="#0f172a"/>
      <rect x="230" y="300" width="60" height="60" rx="4" fill="url(#g2)" opacity=".5"/>
      <rect x="300" y="310" width="60" height="40" rx="4" fill="#475569"/>
      <text x="220" y="290" fill="#94a3b8" font-family="Inter,sans-serif" font-size="10">2024-09-13 · 07:31</text>
    </g>
  </symbol>

  <symbol id="art-chat" viewBox="0 0 400 400">
    <defs><linearGradient id="g3" x1="0" y1="0" x2="1" y2="1"><stop offset="0%" stop-color="#00b8a9"/><stop offset="100%" stop-color="#00d4c3"/></linearGradient></defs>
    <rect x="20" y="40" width="360" height="320" rx="14" fill="#fff" stroke="#e5e7eb"/>
    <!-- user msg -->
    <g>
      <rect x="120" y="70" width="240" height="44" rx="10" fill="#0f172a"/>
      <text x="135" y="88" fill="#fff" font-family="Inter,sans-serif" font-size="12">How many vehicles entered Gate 3</text>
      <text x="135" y="104" fill="#fff" font-family="Inter,sans-serif" font-size="12">between 8 and 9 AM today?</text>
    </g>
    <!-- AI response -->
    <g>
      <circle cx="50" cy="150" r="14" fill="url(#g3)"/>
      <path d="M44 150l4 4 8-8" stroke="#fff" stroke-width="2" fill="none" stroke-linecap="round"/>
      <rect x="74" y="134" width="280" height="92" rx="10" fill="#f0fdfa" stroke="#a7f3d0"/>
      <text x="86" y="154" fill="#0f172a" font-family="Inter,sans-serif" font-size="12" font-weight="600">47 vehicles entered Gate 3.</text>
      <text x="86" y="172" fill="#475569" font-family="Inter,sans-serif" font-size="11">Peak: 8:22 AM (12 vehicles in 6 min)</text>
      <rect x="86" y="184" width="80" height="32" rx="4" fill="#0f172a"/>
      <rect x="170" y="184" width="80" height="32" rx="4" fill="#0f172a"/>
      <text x="92" y="206" fill="#94a3b8" font-family="Inter,sans-serif" font-size="9">► clip 1</text>
      <text x="176" y="206" fill="#94a3b8" font-family="Inter,sans-serif" font-size="9">► clip 2</text>
    </g>
    <!-- typing -->
    <g>
      <circle cx="50" cy="270" r="14" fill="url(#g3)" opacity=".3"/>
      <rect x="74" y="256" width="120" height="28" rx="10" fill="#f9fafb"/>
      <circle cx="100" cy="270" r="3" fill="#9ca3af"><animate attributeName="opacity" values="0.3;1;0.3" dur="1.2s" repeatCount="indefinite"/></circle>
      <circle cx="115" cy="270" r="3" fill="#9ca3af"><animate attributeName="opacity" values="0.3;1;0.3" dur="1.2s" begin="0.2s" repeatCount="indefinite"/></circle>
      <circle cx="130" cy="270" r="3" fill="#9ca3af"><animate attributeName="opacity" values="0.3;1;0.3" dur="1.2s" begin="0.4s" repeatCount="indefinite"/></circle>
    </g>
    <rect x="40" y="310" width="320" height="36" rx="18" fill="#f9fafb" stroke="#e5e7eb"/>
    <text x="56" y="332" fill="#9ca3af" font-family="Inter,sans-serif" font-size="12">Ask anything about your data…</text>
  </symbol>

  <symbol id="art-face" viewBox="0 0 400 400">
    <defs><linearGradient id="g4" x1="0" y1="0" x2="1" y2="1"><stop offset="0%" stop-color="#00b8a9"/><stop offset="100%" stop-color="#00d4c3"/></linearGradient></defs>
    <rect x="40" y="40" width="320" height="320" rx="16" fill="#0f172a"/>
    <!-- face silhouette -->
    <g transform="translate(200 200)">
      <circle r="80" fill="#1e293b"/>
      <circle r="70" fill="none" stroke="url(#g4)" stroke-width="1.5" stroke-dasharray="4 4">
        <animateTransform attributeName="transform" type="rotate" from="0" to="360" dur="14s" repeatCount="indefinite"/>
      </circle>
      <ellipse cx="-22" cy="-12" rx="6" ry="3" fill="#cbd5e1"/>
      <ellipse cx="22" cy="-12" rx="6" ry="3" fill="#cbd5e1"/>
      <path d="M-18 22q18 12 36 0" stroke="#cbd5e1" stroke-width="2" fill="none" stroke-linecap="round"/>
      <!-- landmarks -->
      <g fill="#00b8a9">
        <circle cx="-22" cy="-12" r="1.5"/><circle cx="22" cy="-12" r="1.5"/>
        <circle cx="0" cy="6" r="1.5"/><circle cx="-18" cy="22" r="1.5"/><circle cx="18" cy="22" r="1.5"/>
        <circle cx="-40" cy="-30" r="1.5"/><circle cx="40" cy="-30" r="1.5"/>
        <circle cx="-50" cy="10" r="1.5"/><circle cx="50" cy="10" r="1.5"/>
        <circle cx="-30" cy="40" r="1.5"/><circle cx="30" cy="40" r="1.5"/>
      </g>
    </g>
    <!-- match panel -->
    <rect x="60" y="290" width="280" height="56" rx="10" fill="#1e293b"/>
    <circle cx="84" cy="318" r="4" fill="#22c55e"><animate attributeName="opacity" values="1;0.3;1" dur="1.4s" repeatCount="indefinite"/></circle>
    <text x="100" y="312" fill="#fff" font-family="Inter,sans-serif" font-size="12" font-weight="600">Match · ID 8423</text>
    <text x="100" y="328" fill="#94a3b8" font-family="Inter,sans-serif" font-size="10">Authorised · access granted · 99.6%</text>
  </symbol>

  <!-- INDUSTRIES -->
  <symbol id="art-mfg" viewBox="0 0 400 400">
    <defs><linearGradient id="gm" x1="0" y1="0" x2="1" y2="1"><stop offset="0%" stop-color="#00b8a9"/><stop offset="100%" stop-color="#00d4c3"/></linearGradient></defs>
    <rect x="20" y="40" width="360" height="320" rx="14" fill="#0f172a"/>
    <!-- conveyor belt -->
    <rect x="40" y="220" width="320" height="40" rx="4" fill="#1e293b"/>
    <rect x="40" y="220" width="320" height="6" fill="#334155"/>
    <g fill="#475569">
      <rect x="50" y="262" width="20" height="20" rx="10"/>
      <rect x="110" y="262" width="20" height="20" rx="10"/>
      <rect x="170" y="262" width="20" height="20" rx="10"/>
      <rect x="230" y="262" width="20" height="20" rx="10"/>
      <rect x="290" y="262" width="20" height="20" rx="10"/>
    </g>
    <!-- units on belt -->
    <g>
      <rect x="80" y="190" width="32" height="32" rx="4" fill="url(#gm)"/>
      <rect x="170" y="190" width="32" height="32" rx="4" fill="url(#gm)"/>
      <rect x="260" y="190" width="32" height="32" rx="4" fill="#ef4444"/>
      <rect x="245" y="170" width="62" height="20" rx="3" fill="#ef4444"/>
      <text x="251" y="184" fill="#fff" font-family="Inter,sans-serif" font-size="10" font-weight="600">DEFECT</text>
    </g>
    <!-- camera -->
    <g transform="translate(200 80)">
      <rect x="-30" y="-12" width="60" height="24" rx="4" fill="#1e293b" stroke="#475569"/>
      <circle cx="0" cy="0" r="6" fill="#0f172a" stroke="#00b8a9"/>
      <path d="M0 12L-40 180M0 12L40 180" stroke="#00b8a9" stroke-width="1" stroke-dasharray="3 3" opacity=".5"/>
    </g>
    <text x="40" y="80" fill="#94a3b8" font-family="Inter,sans-serif" font-size="11" font-weight="500">LINE_07 · QC</text>
    <text x="40" y="350" fill="#94a3b8" font-family="Inter,sans-serif" font-size="10">Inspected 14,206 units · 23 flagged today</text>
  </symbol>

  <symbol id="art-retail" viewBox="0 0 400 400">
    <rect x="20" y="40" width="360" height="320" rx="14" fill="#0f172a"/>
    <!-- shelves -->
    <g>
      <rect x="40" y="80" width="320" height="60" rx="4" fill="#1e293b"/>
      <rect x="40" y="160" width="320" height="60" rx="4" fill="#1e293b"/>
      <rect x="40" y="240" width="320" height="60" rx="4" fill="#1e293b"/>
    </g>
    <!-- products -->
    <g fill="#00b8a9">
      <rect x="60" y="95" width="22" height="30" rx="2"/><rect x="90" y="95" width="22" height="30" rx="2"/><rect x="120" y="95" width="22" height="30" rx="2"/><rect x="180" y="95" width="22" height="30" rx="2"/><rect x="210" y="95" width="22" height="30" rx="2"/>
      <rect x="60" y="175" width="22" height="30" rx="2"/><rect x="120" y="175" width="22" height="30" rx="2" opacity=".4"/><rect x="150" y="175" width="22" height="30" rx="2"/><rect x="210" y="175" width="22" height="30" rx="2"/><rect x="270" y="175" width="22" height="30" rx="2"/>
      <rect x="60" y="255" width="22" height="30" rx="2"/><rect x="90" y="255" width="22" height="30" rx="2"/><rect x="180" y="255" width="22" height="30" rx="2"/><rect x="240" y="255" width="22" height="30" rx="2"/><rect x="300" y="255" width="22" height="30" rx="2"/>
    </g>
    <!-- gap highlight -->
    <rect x="240" y="90" width="50" height="40" rx="4" fill="none" stroke="#ef4444" stroke-width="2" stroke-dasharray="4 3"/>
    <rect x="240" y="76" width="80" height="18" rx="3" fill="#ef4444"/>
    <text x="247" y="89" fill="#fff" font-family="Inter,sans-serif" font-size="10" font-weight="600">OUT OF STOCK</text>
    <text x="40" y="335" fill="#94a3b8" font-family="Inter,sans-serif" font-size="10">Aisle 4 · planogram compliance 94.2%</text>
  </symbol>

  <symbol id="art-log" viewBox="0 0 400 400">
    <rect x="20" y="40" width="360" height="320" rx="14" fill="#0f172a"/>
    <!-- yard view -->
    <g fill="#1e293b" stroke="#334155">
      <rect x="40" y="90" width="100" height="60" rx="4"/>
      <rect x="150" y="90" width="100" height="60" rx="4"/>
      <rect x="260" y="90" width="100" height="60" rx="4"/>
      <rect x="40" y="170" width="100" height="60" rx="4"/>
      <rect x="150" y="170" width="100" height="60" rx="4"/>
      <rect x="260" y="170" width="100" height="60" rx="4"/>
    </g>
    <!-- trucks at bays -->
    <g fill="#00b8a9">
      <rect x="70" y="105" width="40" height="30" rx="2"/>
      <rect x="180" y="105" width="40" height="30" rx="2"/>
      <rect x="290" y="105" width="40" height="30" rx="2"/>
    </g>
    <g fill="#475569">
      <rect x="70" y="185" width="40" height="30" rx="2"/>
      <rect x="180" y="185" width="40" height="30" rx="2"/>
    </g>
    <!-- idle indicator -->
    <rect x="260" y="170" width="100" height="60" rx="4" fill="none" stroke="#fbbf24" stroke-width="2" stroke-dasharray="4 3"/>
    <rect x="260" y="156" width="80" height="18" rx="3" fill="#fbbf24"/>
    <text x="267" y="169" fill="#0f172a" font-family="Inter,sans-serif" font-size="10" font-weight="600">IDLE 32 MIN</text>
    <text x="40" y="260" fill="#94a3b8" font-family="Inter,sans-serif" font-size="11" font-weight="500">YARD_NORTH · 12 bays</text>
    <text x="40" y="335" fill="#94a3b8" font-family="Inter,sans-serif" font-size="10">5 active loadings · 1 idle bay flagged</text>
  </symbol>

  <symbol id="art-health" viewBox="0 0 400 400">
    <rect x="20" y="40" width="360" height="320" rx="14" fill="#0f172a"/>
    <!-- corridor layout -->
    <path d="M40 90h320v220H40z" fill="#1e293b"/>
    <path d="M40 200h320" stroke="#334155" stroke-dasharray="4 4"/>
    <!-- rooms -->
    <g fill="#334155">
      <rect x="60" y="100" width="80" height="80" rx="4"/>
      <rect x="160" y="100" width="80" height="80" rx="4"/>
      <rect x="260" y="100" width="80" height="80" rx="4"/>
      <rect x="60" y="220" width="80" height="80" rx="4"/>
      <rect x="160" y="220" width="80" height="80" rx="4"/>
    </g>
    <!-- hand wash station -->
    <g transform="translate(280 230)">
      <rect x="0" y="0" width="60" height="60" rx="4" fill="#0f766e"/>
      <circle cx="30" cy="30" r="14" fill="none" stroke="#00d4c3" stroke-width="2"/>
      <path d="M24 30l4 4 8-8" stroke="#00d4c3" stroke-width="2.5" fill="none" stroke-linecap="round"/>
    </g>
    <!-- person dots -->
    <g fill="#00b8a9"><circle cx="100" cy="140" r="4"/><circle cx="200" cy="140" r="4"/><circle cx="300" cy="140" r="4"/><circle cx="100" cy="260" r="4"/></g>
    <text x="40" y="80" fill="#94a3b8" font-family="Inter,sans-serif" font-size="11" font-weight="500">WARD_3B · Hygiene compliance live</text>
    <text x="40" y="345" fill="#94a3b8" font-family="Inter,sans-serif" font-size="10">14 of 14 procedures · 100% hand-wash compliance</text>
  </symbol>

  <symbol id="art-agri" viewBox="0 0 400 400">
    <defs><linearGradient id="ga" x1="0" y1="0" x2="0" y2="1"><stop offset="0%" stop-color="#1e293b"/><stop offset="100%" stop-color="#0f172a"/></linearGradient></defs>
    <rect x="20" y="40" width="360" height="320" rx="14" fill="url(#ga)"/>
    <!-- field grid (top-down) -->
    <g stroke="#334155" stroke-width="1" fill="none">
      <line x1="80" y1="80" x2="80" y2="340"/><line x1="140" y1="80" x2="140" y2="340"/><line x1="200" y1="80" x2="200" y2="340"/><line x1="260" y1="80" x2="260" y2="340"/><line x1="320" y1="80" x2="320" y2="340"/>
      <line x1="40" y1="120" x2="360" y2="120"/><line x1="40" y1="180" x2="360" y2="180"/><line x1="40" y1="240" x2="360" y2="240"/><line x1="40" y1="300" x2="360" y2="300"/>
    </g>
    <!-- NDVI heatmap -->
    <g opacity=".75">
      <rect x="80" y="120" width="60" height="60" fill="#22c55e"/>
      <rect x="140" y="120" width="60" height="60" fill="#65a30d"/>
      <rect x="200" y="120" width="60" height="60" fill="#22c55e"/>
      <rect x="260" y="120" width="60" height="60" fill="#a3e635"/>
      <rect x="80" y="180" width="60" height="60" fill="#65a30d"/>
      <rect x="140" y="180" width="60" height="60" fill="#facc15"/>
      <rect x="200" y="180" width="60" height="60" fill="#22c55e"/>
      <rect x="260" y="180" width="60" height="60" fill="#22c55e"/>
      <rect x="80" y="240" width="60" height="60" fill="#22c55e"/>
      <rect x="140" y="240" width="60" height="60" fill="#ef4444"/>
      <rect x="200" y="240" width="60" height="60" fill="#facc15"/>
      <rect x="260" y="240" width="60" height="60" fill="#22c55e"/>
    </g>
    <rect x="140" y="240" width="60" height="60" fill="none" stroke="#fff" stroke-width="2" stroke-dasharray="4 3"/>
    <rect x="140" y="226" width="100" height="18" rx="3" fill="#ef4444"/>
    <text x="146" y="239" fill="#fff" font-family="Inter,sans-serif" font-size="10" font-weight="600">DISEASE RISK</text>
    <text x="40" y="80" fill="#94a3b8" font-family="Inter,sans-serif" font-size="11" font-weight="500">FIELD_E12 · NDVI heatmap</text>
  </symbol>

  <symbol id="art-city" viewBox="0 0 400 400">
    <rect x="20" y="40" width="360" height="320" rx="14" fill="#0f172a"/>
    <!-- roads -->
    <g stroke="#1e293b" stroke-width="22" fill="none">
      <path d="M40 180h320"/><path d="M200 60v280"/>
    </g>
    <g stroke="#334155" stroke-width="1" stroke-dasharray="6 6" fill="none">
      <path d="M40 180h320"/><path d="M200 60v280"/>
    </g>
    <!-- vehicles -->
    <g fill="#00b8a9">
      <rect x="80" y="172" width="20" height="14" rx="2"/>
      <rect x="140" y="172" width="20" height="14" rx="2"/>
      <rect x="260" y="172" width="20" height="14" rx="2"/>
      <rect x="320" y="172" width="20" height="14" rx="2"/>
    </g>
    <g fill="#fbbf24">
      <rect x="192" y="100" width="14" height="20" rx="2"/>
      <rect x="192" y="220" width="14" height="20" rx="2"/>
    </g>
    <!-- crowd dots -->
    <g fill="#00d4c3">
      <circle cx="80" cy="80" r="3"/><circle cx="100" cy="90" r="3"/><circle cx="92" cy="100" r="3"/><circle cx="120" cy="85" r="3"/><circle cx="110" cy="105" r="3"/>
      <circle cx="300" cy="280" r="3"/><circle cx="320" cy="290" r="3"/><circle cx="310" cy="300" r="3"/>
    </g>
    <!-- detection ring around intersection -->
    <circle cx="200" cy="180" r="40" fill="none" stroke="#00b8a9" stroke-width="1.5" stroke-dasharray="3 4">
      <animate attributeName="r" values="36;46;36" dur="2.4s" repeatCount="indefinite"/>
    </circle>
    <text x="40" y="80" fill="#94a3b8" font-family="Inter,sans-serif" font-size="11" font-weight="500">INTERSECTION_JN_42 · live</text>
    <text x="40" y="350" fill="#94a3b8" font-family="Inter,sans-serif" font-size="10">412 vehicles/hr · 1,180 pedestrians · 0 incidents</text>
  </symbol>
</svg>
